<svg height="100%" version="1.1" width="100%" xmlns="http://www.w3.org/2000/svg" preserveAspectRatio="xMidYMid meet" viewBox="0 0 600 442" xmlns:xlink="http://www.w3.org/1999/xlink"><desc>Created with Snap</desc><defs/><g id="root" contentwidth="231" contentheight="172.39999999999998">
          <rect class="background" height="2000%" width="2000%" y="-1000%" x="-1000%" style="" fill="#f1f1f1"/>
          <rect class="watermarklayer" height="100%" width="100%" y="0" x="0" style="" fill="none"/>
          <g class="content" id="content" transform="matrix(1,0,0,1,4.5,42.8)">
            <g class="icon">
            <svg height="39" version="1.1" width="39" xmlns="http://www.w3.org/2000/svg" x="324" y="174" preserveAspectRatio="none" transform="matrix(1,0,0,1,0,0)"><desc>Created with Snap</desc><defs/><svg xmlns="http://www.w3.org/2000/svg" viewBox="325 199 39 39"><rect id="prefix-TBi-矩形" fill="#137DFF" transform="scale(-1 1) rotate(45 0 -613.743)" x="338" y="198" width="14" height="41" rx="7"/></svg></svg><svg height="75" version="1.1" width="50" xmlns="http://www.w3.org/2000/svg" x="266" y="94" preserveAspectRatio="none" transform="matrix(1,0,0,1,0,0)"><desc>Created with Snap</desc><defs/><svg xmlns="http://www.w3.org/2000/svg" viewBox="267 119 50 75"><path d="M291.969 119a5 5 0 0 1 5 5v65a5 5 0 1 1-10 0v-65a5 5 0 0 1 5-5Zm20 32a5 5 0 0 1 5 5v17a5 5 0 1 1-10 0v-17a5 5 0 0 1 5-5Zm-40-16a5 5 0 0 1 5 5v30a5 5 0 1 1-10 0v-30a5 5 0 0 1 5-5Z" id="prefix-QUv-形状结合" fill="#BAD5F6"/></svg></svg><svg height="120" version="1.1" width="120" xmlns="http://www.w3.org/2000/svg" x="243" y="92" preserveAspectRatio="none" transform="matrix(1,0,0,1,0,0)"><desc>Created with Snap</desc><defs/><svg xmlns="http://www.w3.org/2000/svg" viewBox="244 117 120 120"><path d="M339.969 165.002c0-20.975-13.42-39.354-33.39-45.73a1.996 1.996 0 0 0-2.516 1.294 2 2 0 0 0 1.298 2.514c18.308 5.848 30.608 22.695 30.608 41.922 0 24.262-19.738 44.001-44 44.001s-44-19.739-44-44.001c0-19.227 12.3-36.076 30.608-41.922a2 2 0 0 0 1.298-2.512c-.338-1.054-1.466-1.642-2.514-1.296-19.974 6.376-33.392 24.755-33.392 45.73 0 26.466 21.534 48.001 48 48.001s48-21.535 48-48.001m-80.696-19.455a2.004 2.004 0 0 0-2.704.832c-3.01 5.694-4.6 12.134-4.6 18.623 0 22.056 17.944 40 40 40s40-17.944 40-40c0-16.485-9.916-31.073-25.262-37.164a2.007 2.007 0 0 0-2.598 1.12 2.003 2.003 0 0 0 1.122 2.598c13.812 5.483 22.738 18.611 22.738 33.446 0 19.85-16.15 36-36 36s-36-16.15-36-36c0-5.839 1.43-11.63 4.138-16.751a2.002 2.002 0 0 0-.834-2.704m58.696 35.455c1.106 0 2-.894 2-2v-28c0-1.107-.894-2-2-2h-12a2 2 0 0 0-2 2v40a2 2 0 1 0 4 0v-38h8v26c0 1.106.894 2 2 2m-32 16a2 2 0 0 0 2-2V121h8v74.003a2 2 0 1 0 4 0V119a2 2 0 0 0-2-2h-12a2 2 0 0 0-2 2v76.003a2 2 0 0 0 2 2m-8-64.002h-12a2 2 0 0 0-2 2v44.001a2 2 0 1 0 4 0v-42.001h8v54.001a2 2 0 1 0 4 0v-56.001a2 2 0 0 0-2-2m56.542 63.232a2.001 2.001 0 0 0 0 2.828l4.244 4.244c.39.392.902.586 1.414.586a2.001 2.001 0 0 0 1.414-3.414l-4.242-4.244a2.004 2.004 0 0 0-2.83 0m29.458 30.77a9.93 9.93 0 0 1-2.93 7.07 9.961 9.961 0 0 1-7.072 2.927c-2.56 0-5.12-.974-7.068-2.924l-23.7-23.699a2.001 2.001 0 0 1 2.828-2.83l23.7 23.7a6.008 6.008 0 0 0 8.484-.001 5.953 5.953 0 0 0 1.758-4.242 5.96 5.96 0 0 0-1.758-4.242l-12.598-12.599-4.226 4.25c-.78.784-2.042.79-2.828.008a1.998 1.998 0 0 1-.008-2.828l5.64-5.672c.376-.376.886-.59 1.416-.59h.002a2 2 0 0 1 1.414.586l14.016 14.016a9.937 9.937 0 0 1 2.93 7.07" id="prefix-HHI-Fill-1" fill="#231F20"/></svg></svg><svg height="5" version="1.1" width="146" xmlns="http://www.w3.org/2000/svg" x="180" y="192" preserveAspectRatio="none" transform="matrix(1,0,0,1,0,0)"><desc>Created with Snap</desc><defs/><svg xmlns="http://www.w3.org/2000/svg" viewBox="183 225 146 5"><path d="M326.138 224.665a2.5 2.5 0 0 1 .176 4.995l-.164.005-140.644.335a2.5 2.5 0 0 1-.176-4.994l.164-.006 140.644-.335Z" id="prefix-Rm4-路径-19" fill="#231F20" fill-rule="nonzero"/></svg></svg><svg height="5" version="1.1" width="39" xmlns="http://www.w3.org/2000/svg" x="372" y="190" preserveAspectRatio="none" transform="matrix(1,0,0,1,0,0)"><desc>Created with Snap</desc><defs/><svg xmlns="http://www.w3.org/2000/svg" viewBox="373 225 39 5"><path d="M409.5 225a2.5 2.5 0 0 1 .164 4.995l-.164.005h-34a2.5 2.5 0 0 1-.164-4.995l.164-.005h34Z" id="prefix-U10-路径-19备份" fill="#231F20" fill-rule="nonzero"/></svg></svg></g>
            <g id="icon_name_and_slogan_gap">
            </g>
            <g class="name_and_slogan" id="name_and_slogan_id">
              <g class="name"><g id="nameDefaultGroup"><path d="M243.7 263.6 L243.4 262.6 L212.6 262.7 L212.6 257.8 L219.2 241.8 L210.8 241.8 L210.8 236.4 L251.2 236.4 L251.2 241.8 L227 241.8 L220.6 256.9 L241.4 257 L237.8 246.4 L245.5 246.4 L251.7 263.6 L243.7 263.6 Z M250 222.8 L250 228.3 L213.4 228.3 L213.4 222.8 L250 222.8 Z M257.4 263.1 L257.4 222.6 L296.5 222.6 L296.5 263.1 L257.4 263.1 Z M279.1 232.5 L280.9 232.5 L282.4 229.1 L287.8 229.1 L286.4 232.5 L288.5 232.5 L288.5 236.6 L276.8 236.6 L276 238 L288.9 238 L288.9 242.1 L287.2 242.1 L290.2 247.8 L290.2 227.6 L263.7 227.6 L263.7 248.3 L267.3 242.1 L264.6 242.1 L264.6 238 L269.7 238 L270.5 236.6 L265.3 236.6 L265.3 232.5 L267.3 232.5 L266.5 229.1 L271.8 229.1 L272.7 232.5 L272.9 232.5 L275.3 228.5 L281.4 228.5 L279.1 232.5 Z M290.2 248.6 L285.9 248.6 L285.9 250.5 L283.6 252.4 L279 250.6 L280.2 249.6 L280.2 248.3 L273.8 248.3 L273.8 253.4 L283.7 253.4 L284.4 252 L289 252 L287.9 257.1 L267.8 257.1 L267.8 248.6 L263.7 248.6 L263.7 258.2 L290.2 258.2 L290.2 248.6 Z M272.4 244.4 L282.8 244.4 L281.6 242.1 L273.7 242.1 L272.4 244.4 Z M314.4 222.1 L314.4 226.8 L320.5 226.8 L320.5 232.2 L314.4 232.2 L314.4 242.4 L320 241.6 L320 247.7 L314.4 248.5 L314.4 259.2 L308 264.4 L303.7 259.2 L307.7 256.2 L307.7 249.3 L302.2 250.1 L302.2 244 L307.7 243.3 L307.7 232.2 L302.2 232.2 L302.2 226.8 L307.7 226.8 L307.7 222.1 L314.4 222.1 Z M343.5 222.7 L343.5 227.8 L337.4 227.8 L337.4 259.2 L330.4 264.4 L325.8 259.2 L330.1 256.2 L330.1 227.8 L321.5 227.8 L321.5 222.7 L343.5 222.7 Z M368.8 225.9 L386.9 225.9 L386.9 231.5 L368.8 231.5 L368.8 237.2 L389 237.2 L389 242.9 L368.9 242.9 L368.9 263.5 L361.3 263.5 L361.3 242.9 L348.3 242.9 L348.3 237.2 L361.2 237.2 L361.2 222.1 L368.8 222.1 L368.8 225.9 Z M379.5 260.2 L372.4 245.8 L379.9 245.8 L387.2 260.2 L379.5 260.2 Z" style="" fill="#070000" transform="matrix(1,0,0,1,0,0)"/></g></g>
              <g class="slogan"><g id="sloganDefaultGroup"/></g>
            </g>
            <g class="border">
            </g>
          </g>
          <defs id="defs">
            <mask xmlns="http://www.w3.org/2000/svg" id="mask">
                <rect id="showAll" fill="white" x="180" y="92" width="231" height="121"/>
                <rect id="hideNameBg" fill="black" x="0" y="0" width="0" height="0" stroke-width="2" stroke="black"/>
                <rect id="hideSloganBg" fill="black" x="0" y="0" width="0" height="0" stroke-width="2" stroke="black"/>
            </mask>
          
          </defs>
        </g>
        </svg>